
<global>
amp_veltrack=0
</global>

<group>
ampeg_attack=0.01
ampeg_release=0.25
group_label=pp
xf_cccurve=gain
xfin_hicc1=63
xfout_hicc1=127
xfout_locc1=64

<region>
hivel=127
key=A#3
loop_end=195905
loop_mode=loop_continuous
loop_start=74016
loop_xfade=23133
lovel=1
offset=408
sample=Tenors_Ooh_sustain_PP_A#3.opus
tune=+6
</region>

<region>
hikey=E5
hivel=127
lokey=A#4
loop_end=194217
loop_mode=loop_continuous
loop_start=73378
loop_xfade=22934
lovel=1
offset=2052
pitch_keycenter=A#4
sample=Tenors_Ooh_sustain_PP_A#4.opus
</region>

<region>
hivel=127
key=A3
loop_end=198119
loop_mode=loop_continuous
loop_start=74852
loop_xfade=23395
lovel=1
offset=244
sample=Tenors_Ooh_sustain_PP_A3.opus
tune=+2
</region>

<region>
hivel=127
key=A4
loop_end=195018
loop_mode=loop_continuous
loop_start=73681
loop_xfade=23029
lovel=1
offset=108
sample=Tenors_Ooh_sustain_PP_A4.opus
tune=-5
</region>

<region>
hivel=127
key=B3
loop_end=196857
loop_mode=loop_continuous
loop_start=74375
loop_xfade=23246
lovel=1
offset=1758
sample=Tenors_Ooh_sustain_PP_B3.opus
tune=+4
</region>

<region>
hivel=127
key=C#4
loop_end=195606
loop_mode=loop_continuous
loop_start=73903
loop_xfade=23098
lovel=1
offset=18
sample=Tenors_Ooh_sustain_PP_C#4.opus
tune=+4
</region>

<region>
hikey=C4
hivel=127
lokey=C4
loop_end=194788
loop_mode=loop_continuous
loop_start=73594
loop_xfade=23001
lovel=1
offset=357
sample=Tenors_Ooh_sustain_PP_C4.opus
tune=+3
</region>

<region>
hivel=127
key=D#4
loop_end=195579
loop_mode=loop_continuous
loop_start=73893
loop_xfade=23095
lovel=1
offset=154
sample=Tenors_Ooh_sustain_PP_D#4.opus
tune=+4
</region>

<region>
hivel=127
key=D4
loop_end=195684
loop_mode=loop_continuous
loop_start=73932
loop_xfade=23107
lovel=1
offset=1115
sample=Tenors_Ooh_sustain_PP_D4.opus
tune=+3
</region>

<region>
hivel=127
key=E4
loop_end=193458
loop_mode=loop_continuous
loop_start=73091
loop_xfade=22844
lovel=1
offset=4
sample=Tenors_Ooh_sustain_PP_E4.opus
tune=+3
</region>

<region>
hivel=127
key=F#3
loop_end=195853
loop_mode=loop_continuous
loop_start=73996
loop_xfade=23127
lovel=1
offset=1660
sample=Tenors_Ooh_sustain_PP_F#3.opus
tune=+6
</region>

<region>
hivel=127
key=F#4
loop_end=194342
loop_mode=loop_continuous
loop_start=73425
loop_xfade=22949
lovel=1
offset=128
sample=Tenors_Ooh_sustain_PP_F#4.opus
tune=+4
</region>

<region>
hivel=127
key=F3
loop_end=196247
loop_mode=loop_continuous
loop_start=74145
loop_xfade=23174
lovel=1
offset=507
sample=Tenors_Ooh_sustain_PP_F3.opus
tune=+7
</region>

<region>
hivel=127
key=F4
loop_end=194569
loop_mode=loop_continuous
loop_start=73511
loop_xfade=22976
lovel=1
offset=5
sample=Tenors_Ooh_sustain_PP_F4.opus
tune=+2
</region>

<region>
hivel=127
key=G#3
loop_end=194817
loop_mode=loop_continuous
loop_start=73604
loop_xfade=23005
lovel=1
offset=34
sample=Tenors_Ooh_sustain_PP_G#3.opus
tune=+3
</region>

<region>
hivel=127
key=G#4
loop_end=194277
loop_mode=loop_continuous
loop_start=73400
loop_xfade=22941
lovel=1
offset=598
sample=Tenors_Ooh_sustain_PP_G#4.opus
tune=+5
</region>

<region>
hivel=127
key=G3
loop_end=195264
loop_mode=loop_continuous
loop_start=73774
loop_xfade=23058
lovel=1
offset=486
sample=Tenors_Ooh_sustain_PP_G3.opus
tune=+6
</region>

<region>
hivel=127
key=G4
loop_end=194571
loop_mode=loop_continuous
loop_start=73512
loop_xfade=22976
lovel=1
offset=736
sample=Tenors_Ooh_sustain_PP_G4.opus
tune=+5
</region>

<region>
hivel=127
key=C#3
loop_end=197712
loop_mode=loop_continuous
loop_start=74698
loop_xfade=23347
lovel=1
offset=679
sample=Tenors_Ooh_sustain_PP_C#3.opus
tune=-3
</region>

<region>
hikey=C3
hivel=127
lokey=F2
loop_end=195049
loop_mode=loop_continuous
loop_start=73692
loop_xfade=23032
lovel=1
offset=178
pitch_keycenter=C3
sample=Tenors_Ooh_sustain_PP_C3.opus
tune=+4
</region>

<region>
hivel=127
key=D#3
loop_end=195886
loop_mode=loop_continuous
loop_start=74008
loop_xfade=23131
lovel=1
offset=1266
sample=Tenors_Ooh_sustain_PP_D#3.opus
tune=+3
</region>

<region>
hivel=127
key=D3
loop_end=197158
loop_mode=loop_continuous
loop_start=74489
loop_xfade=23281
lovel=1
offset=254
sample=Tenors_Ooh_sustain_PP_D3.opus
tune=+2
</region>

<region>
hivel=127
key=E3
loop_end=196508
loop_mode=loop_continuous
loop_start=74243
loop_xfade=23205
lovel=1
offset=21
sample=Tenors_Ooh_sustain_PP_E3.opus
tune=+5
</region>
</group>

<group>
ampeg_attack=0.01
ampeg_release=0.25
group_label=ff
xf_cccurve=gain
xfin_hicc1=127
xfin_locc1=64
xfout_hicc1=127
xfout_locc1=127

<region>
hikey=E5
hivel=127
lokey=A#4
loop_end=194713
loop_mode=loop_continuous
loop_start=73565
loop_xfade=22993
lovel=1
offset=437
pitch_keycenter=A#4
sample=Tenors_Ooh_sustain_FF_A#4.opus
tune=-4
</region>

<region>
hivel=127
key=A4
loop_end=193155
loop_mode=loop_continuous
loop_start=72977
loop_xfade=22809
lovel=1
offset=1311
sample=Tenors_Ooh_sustain_FF_A4.opus
tune=+4
</region>

<region>
hivel=127
key=F#4
loop_end=194691
loop_mode=loop_continuous
loop_start=73557
loop_xfade=22990
lovel=1
offset=375
sample=Tenors_Ooh_sustain_FF_F#4.opus
tune=+1
</region>

<region>
hivel=127
key=G#4
loop_end=192992
loop_mode=loop_continuous
loop_start=72915
loop_xfade=22789
lovel=1
offset=732
sample=Tenors_Ooh_sustain_FF_G#4.opus
tune=-3
</region>

<region>
hivel=127
key=G4
loop_end=193980
loop_mode=loop_continuous
loop_start=73288
loop_xfade=22906
lovel=1
offset=1327
sample=Tenors_Ooh_sustain_FF_G4.opus
tune=+5
</region>

<region>
hivel=127
key=A#3
loop_end=193167
loop_mode=loop_continuous
loop_start=72981
loop_xfade=22810
lovel=1
offset=636
sample=Tenors_Ooh_sustain_FF_A#3.opus
tune=-2
</region>

<region>
hivel=127
key=A3
loop_end=194630
loop_mode=loop_continuous
loop_start=73534
loop_xfade=22983
lovel=1
offset=676
sample=Tenors_Ooh_sustain_FF_A3.opus
tune=-2
</region>

<region>
hivel=127
key=B3
loop_end=193779
loop_mode=loop_continuous
loop_start=73212
loop_xfade=22882
lovel=1
offset=940
sample=Tenors_Ooh_sustain_FF_B3.opus
tune=+4
</region>

<region>
hivel=127
key=C#4
loop_end=193835
loop_mode=loop_continuous
loop_start=73234
loop_xfade=22889
lovel=1
offset=661
sample=Tenors_Ooh_sustain_FF_C#4.opus
tune=+4
</region>

<region>
hikey=C4
hivel=127
lokey=C4
loop_end=194532
loop_mode=loop_continuous
loop_start=73497
loop_xfade=22971
lovel=1
offset=583
sample=Tenors_Ooh_sustain_FF_C4.opus
tune=+1
</region>

<region>
hivel=127
key=D#4
loop_end=193026
loop_mode=loop_continuous
loop_start=72928
loop_xfade=22793
lovel=1
offset=3089
sample=Tenors_Ooh_sustain_FF_D#4.opus
tune=-3
</region>

<region>
hivel=127
key=D4
loop_end=191468
loop_mode=loop_continuous
loop_start=72339
loop_xfade=22609
lovel=1
offset=719
sample=Tenors_Ooh_sustain_FF_D4.opus
tune=-1
</region>

<region>
hivel=127
key=E4
loop_end=191183
loop_mode=loop_continuous
loop_start=72232
loop_xfade=22576
lovel=1
offset=673
sample=Tenors_Ooh_sustain_FF_E4.opus
tune=+4
</region>

<region>
hivel=127
key=F4
loop_end=193707
loop_mode=loop_continuous
loop_start=73185
loop_xfade=22874
lovel=1
offset=1641
sample=Tenors_Ooh_sustain_FF_F4.opus
tune=+4
</region>

<region>
hivel=127
key=C#3
loop_end=195897
loop_mode=loop_continuous
loop_start=74013
loop_xfade=23132
lovel=1
offset=200
sample=Tenors_Ooh_sustain_FF_C#3.opus
tune=+5
</region>

<region>
hikey=C3
hivel=127
lokey=F2
loop_end=194722
loop_mode=loop_continuous
loop_start=73569
loop_xfade=22994
lovel=1
offset=1020
pitch_keycenter=C3
sample=Tenors_Ooh_sustain_FF_C3.opus
tune=+5
</region>

<region>
hivel=127
key=D#3
loop_end=195307
loop_mode=loop_continuous
loop_start=73790
loop_xfade=23063
lovel=1
offset=821
sample=Tenors_Ooh_sustain_FF_D#3.opus
tune=+5
</region>

<region>
hivel=127
key=D3
loop_end=194952
loop_mode=loop_continuous
loop_start=73656
loop_xfade=23021
lovel=1
offset=583
sample=Tenors_Ooh_sustain_FF_D3.opus
tune=+4
</region>

<region>
hivel=127
key=E3
loop_end=195137
loop_mode=loop_continuous
loop_start=73725
loop_xfade=23043
lovel=1
offset=913
sample=Tenors_Ooh_sustain_FF_E3.opus
tune=+5
</region>

<region>
hivel=127
key=F#3
loop_end=194197
loop_mode=loop_continuous
loop_start=73371
loop_xfade=22932
lovel=1
offset=295
sample=Tenors_Ooh_sustain_FF_F#3.opus
tune=+6
</region>

<region>
hivel=127
key=F3
loop_end=194617
loop_mode=loop_continuous
loop_start=73529
loop_xfade=22981
lovel=1
offset=824
sample=Tenors_Ooh_sustain_FF_F3.opus
tune=+4
</region>

<region>
hivel=127
key=G#3
loop_end=192384
loop_mode=loop_continuous
loop_start=72685
loop_xfade=22718
lovel=1
offset=562
sample=Tenors_Ooh_sustain_FF_G#3.opus
tune=+1
</region>

<region>
hivel=127
key=G3
loop_end=192078
loop_mode=loop_continuous
loop_start=72570
loop_xfade=22681
lovel=1
offset=1829
sample=Tenors_Ooh_sustain_FF_G3.opus
tune=+5
</region>
</group>

<group>
ampeg_attack=0.02
ampeg_release=3.5
group_label=pp_rel
trigger=release
xf_cccurve=gain
xfin_hicc1=63
xfout_hicc1=127
xfout_locc1=64

<region>
hivel=127
key=A#3
lovel=1
offset=192000
sample=Tenors_Ooh_sustain_PP_A#3.opus
tune=+6
</region>

<region>
hikey=E5
hivel=127
lokey=A#4
lovel=1
offset=192000
pitch_keycenter=A#4
sample=Tenors_Ooh_sustain_PP_A#4.opus
</region>

<region>
hivel=127
key=A3
lovel=1
offset=192000
sample=Tenors_Ooh_sustain_PP_A3.opus
tune=+2
</region>

<region>
hivel=127
key=A4
lovel=1
offset=192000
sample=Tenors_Ooh_sustain_PP_A4.opus
tune=-5
</region>

<region>
hivel=127
key=B3
lovel=1
offset=192000
sample=Tenors_Ooh_sustain_PP_B3.opus
tune=+4
</region>

<region>
hivel=127
key=C#4
lovel=1
offset=192000
sample=Tenors_Ooh_sustain_PP_C#4.opus
tune=+4
</region>

<region>
hikey=C4
hivel=127
lokey=C4
lovel=1
offset=192000
sample=Tenors_Ooh_sustain_PP_C4.opus
tune=+3
</region>

<region>
hivel=127
key=D#4
lovel=1
offset=192000
sample=Tenors_Ooh_sustain_PP_D#4.opus
tune=+4
</region>

<region>
hivel=127
key=D4
lovel=1
offset=192000
sample=Tenors_Ooh_sustain_PP_D4.opus
tune=+3
</region>

<region>
hivel=127
key=E4
lovel=1
offset=192000
sample=Tenors_Ooh_sustain_PP_E4.opus
tune=+3
</region>

<region>
hivel=127
key=F#3
lovel=1
offset=192000
sample=Tenors_Ooh_sustain_PP_F#3.opus
tune=+6
</region>

<region>
hivel=127
key=F#4
lovel=1
offset=192000
sample=Tenors_Ooh_sustain_PP_F#4.opus
tune=+4
</region>

<region>
hivel=127
key=F3
lovel=1
offset=192000
sample=Tenors_Ooh_sustain_PP_F3.opus
tune=+7
</region>

<region>
hivel=127
key=F4
lovel=1
offset=192000
sample=Tenors_Ooh_sustain_PP_F4.opus
tune=+2
</region>

<region>
hivel=127
key=G#3
lovel=1
offset=192000
sample=Tenors_Ooh_sustain_PP_G#3.opus
tune=+3
</region>

<region>
hivel=127
key=G#4
lovel=1
offset=192000
sample=Tenors_Ooh_sustain_PP_G#4.opus
tune=+5
</region>

<region>
hivel=127
key=G3
lovel=1
offset=192000
sample=Tenors_Ooh_sustain_PP_G3.opus
tune=+6
</region>

<region>
hivel=127
key=G4
lovel=1
offset=192000
sample=Tenors_Ooh_sustain_PP_G4.opus
tune=+5
</region>

<region>
hivel=127
key=C#3
lovel=1
offset=192000
sample=Tenors_Ooh_sustain_PP_C#3.opus
tune=-3
</region>

<region>
hikey=C3
hivel=127
lokey=F2
lovel=1
offset=192000
pitch_keycenter=C3
sample=Tenors_Ooh_sustain_PP_C3.opus
tune=+4
</region>

<region>
hivel=127
key=D#3
lovel=1
offset=192000
sample=Tenors_Ooh_sustain_PP_D#3.opus
tune=+3
</region>

<region>
hivel=127
key=D3
lovel=1
offset=192000
sample=Tenors_Ooh_sustain_PP_D3.opus
tune=+2
</region>

<region>
hivel=127
key=E3
lovel=1
offset=192000
sample=Tenors_Ooh_sustain_PP_E3.opus
tune=+5
</region>
</group>

<group>
ampeg_attack=0.02
ampeg_release=3.5
group_label=ff_rel
trigger=release
xf_cccurve=gain
xfin_hicc1=127
xfin_locc1=64
xfout_hicc1=127
xfout_locc1=127

<region>
hikey=E5
hivel=127
lokey=A#4
lovel=1
offset=192000
pitch_keycenter=A#4
sample=Tenors_Ooh_sustain_FF_A#4.opus
tune=-4
</region>

<region>
hivel=127
key=A4
lovel=1
offset=192000
sample=Tenors_Ooh_sustain_FF_A4.opus
tune=+4
</region>

<region>
hivel=127
key=F#4
lovel=1
offset=192000
sample=Tenors_Ooh_sustain_FF_F#4.opus
tune=+1
</region>

<region>
hivel=127
key=G#4
lovel=1
offset=192000
sample=Tenors_Ooh_sustain_FF_G#4.opus
tune=-3
</region>

<region>
hivel=127
key=G4
lovel=1
offset=192000
sample=Tenors_Ooh_sustain_FF_G4.opus
tune=+5
</region>

<region>
hivel=127
key=A#3
lovel=1
offset=192000
sample=Tenors_Ooh_sustain_FF_A#3.opus
tune=-2
</region>

<region>
hivel=127
key=A3
lovel=1
offset=192000
sample=Tenors_Ooh_sustain_FF_A3.opus
tune=-2
</region>

<region>
hivel=127
key=B3
lovel=1
offset=192000
sample=Tenors_Ooh_sustain_FF_B3.opus
tune=+4
</region>

<region>
hivel=127
key=C#4
lovel=1
offset=192000
sample=Tenors_Ooh_sustain_FF_C#4.opus
tune=+4
</region>

<region>
hikey=C4
hivel=127
lokey=C4
lovel=1
offset=192000
sample=Tenors_Ooh_sustain_FF_C4.opus
tune=+1
</region>

<region>
hivel=127
key=D#4
lovel=1
offset=192000
sample=Tenors_Ooh_sustain_FF_D#4.opus
tune=-3
</region>

<region>
hivel=127
key=D4
lovel=1
offset=192000
sample=Tenors_Ooh_sustain_FF_D4.opus
tune=-1
</region>

<region>
hivel=127
key=E4
lovel=1
offset=192000
sample=Tenors_Ooh_sustain_FF_E4.opus
tune=+4
</region>

<region>
hivel=127
key=F4
lovel=1
offset=192000
sample=Tenors_Ooh_sustain_FF_F4.opus
tune=+4
</region>

<region>
hivel=127
key=C#3
lovel=1
offset=192000
sample=Tenors_Ooh_sustain_FF_C#3.opus
tune=+5
</region>

<region>
hikey=C3
hivel=127
lokey=F2
lovel=1
offset=192000
pitch_keycenter=C3
sample=Tenors_Ooh_sustain_FF_C3.opus
tune=+5
</region>

<region>
hivel=127
key=D#3
lovel=1
offset=192000
sample=Tenors_Ooh_sustain_FF_D#3.opus
tune=+5
</region>

<region>
hivel=127
key=D3
lovel=1
offset=192000
sample=Tenors_Ooh_sustain_FF_D3.opus
tune=+4
</region>

<region>
hivel=127
key=E3
lovel=1
offset=192000
sample=Tenors_Ooh_sustain_FF_E3.opus
tune=+5
</region>

<region>
hivel=127
key=F#3
lovel=1
offset=192000
sample=Tenors_Ooh_sustain_FF_F#3.opus
tune=+6
</region>

<region>
hivel=127
key=F3
lovel=1
offset=192000
sample=Tenors_Ooh_sustain_FF_F3.opus
tune=+4
</region>

<region>
hivel=127
key=G#3
lovel=1
offset=192000
sample=Tenors_Ooh_sustain_FF_G#3.opus
tune=+1
</region>

<region>
hivel=127
key=G3
lovel=1
offset=192000
sample=Tenors_Ooh_sustain_FF_G3.opus
tune=+5
</region>
</group>